<svg fill="#ffffff" width="35px" height="35px" viewBox="0 0 1.05 1.05" xmlns="http://www.w3.org/2000/svg"><path d="M0.787 0.044H0.262a0.131 0.131 0 0 0 -0.131 0.131v0.787a0.044 0.044 0 0 0 0.079 0.026l0.089 -0.118 0.056 0.112a0.044 0.044 0 0 0 0.035 0.024 0.043 0.043 0 0 0 0.039 -0.017L0.525 0.86l0.096 0.128a0.043 0.043 0 0 0 0.039 0.017 0.044 0.044 0 0 0 0.035 -0.024l0.056 -0.112 0.089 0.118a0.044 0.044 0 0 0 0.035 0.017 0.044 0.044 0 0 0 0.044 -0.044V0.175a0.131 0.131 0 0 0 -0.131 -0.131Zm0.044 0.787 -0.052 -0.07a0.043 0.043 0 0 0 -0.039 -0.017 0.044 0.044 0 0 0 -0.035 0.024l-0.056 0.112L0.56 0.761a0.044 0.044 0 0 0 -0.07 0l-0.089 0.118L0.346 0.768A0.044 0.044 0 0 0 0.31 0.744a0.043 0.043 0 0 0 -0.039 0.017L0.219 0.831V0.175a0.044 0.044 0 0 1 0.044 -0.044h0.525a0.044 0.044 0 0 1 0.044 0.044ZM0.744 0.394a0.044 0.044 0 0 1 -0.044 0.044H0.35a0.044 0.044 0 0 1 0 -0.087h0.35a0.044 0.044 0 0 1 0.044 0.044Zm-0.175 0.175a0.044 0.044 0 0 1 -0.044 0.044H0.35a0.044 0.044 0 0 1 0 -0.087h0.175a0.044 0.044 0 0 1 0.044 0.044Z"/></svg>