<svg width="35px" height="35px" viewBox="0 0 0.75 0.75" fill="none" xmlns="http://www.w3.org/2000/svg"><path d="M0.1 0.625v0.025h0.05v-0.025H0.1Zm0.25 0v0.025h0.05v-0.025H0.35Zm-0.2 0V0.6H0.1v0.025h0.05Zm0.2 -0.025v0.025h0.05V0.6H0.35Zm-0.1 -0.1a0.1 0.1 0 0 1 0.1 0.1h0.05a0.15 0.15 0 0 0 -0.15 -0.15v0.05Zm-0.1 0.1a0.1 0.1 0 0 1 0.1 -0.1V0.45a0.15 0.15 0 0 0 -0.15 0.15h0.05Zm0.1 -0.4a0.1 0.1 0 0 0 -0.1 0.1h0.05a0.05 0.05 0 0 1 0.05 -0.05V0.2Zm0.1 0.1a0.1 0.1 0 0 0 -0.1 -0.1v0.05a0.05 0.05 0 0 1 0.05 0.05h0.05ZM0.25 0.4a0.1 0.1 0 0 0 0.1 -0.1H0.3a0.05 0.05 0 0 1 -0.05 0.05v0.05Zm0 -0.05a0.05 0.05 0 0 1 -0.05 -0.05H0.15a0.1 0.1 0 0 0 0.1 0.1V0.35ZM0.075 0.15h0.6V0.1h-0.6v0.05Zm0.625 0.025v0.4h0.05v-0.4h-0.05Zm-0.025 0.425h-0.6v0.05h0.6v-0.05ZM0.05 0.575v-0.4H0v0.4h0.05Zm0.025 0.025a0.025 0.025 0 0 1 -0.025 -0.025H0A0.075 0.075 0 0 0 0.075 0.65v-0.05Zm0.625 -0.025a0.025 0.025 0 0 1 -0.025 0.025v0.05a0.075 0.075 0 0 0 0.075 -0.075h-0.05ZM0.675 0.15a0.025 0.025 0 0 1 0.025 0.025h0.05A0.075 0.075 0 0 0 0.675 0.1v0.05Zm-0.6 -0.05A0.075 0.075 0 0 0 0 0.175h0.05a0.025 0.025 0 0 1 0.025 -0.025V0.1ZM0.45 0.3h0.15V0.25H0.45v0.05Zm0 0.15h0.15V0.4H0.45v0.05Zm-0.45 0.3h0.75v-0.05H0v0.05ZM0.15 0v0.125h0.05V0H0.15Zm0.4 0v0.125h0.05V0h-0.05Z" fill="#000000"/></svg>