<svg width="35px" height="35px" viewBox="0 0 2.1 2.1" xmlns="http://www.w3.org/2000/svg"><g id="Layer_2" data-name="Layer 2"><g id="invisible_box" data-name="invisible box"><path width="48" height="48" fill="none" d="M0 0H2.1V2.1H0V0z"/></g><g id="Icons"><path d="M2.012 0.656a0.127 0.127 0 0 0 -0.131 -0.131h-0.206a0.184 0.184 0 0 0 0.017 -0.044 0.306 0.306 0 0 0 -0.026 -0.232 0.293 0.293 0 0 0 -0.188 -0.149A0.311 0.311 0 0 0 1.094 0.306l-0.044 0.149L1.006 0.306a0.311 0.311 0 0 0 -0.385 -0.206 0.293 0.293 0 0 0 -0.188 0.149 0.306 0.306 0 0 0 -0.026 0.232 0.184 0.184 0 0 0 0.017 0.044H0.219a0.127 0.127 0 0 0 -0.131 0.131v0.481h0.087v0.744a0.127 0.127 0 0 0 0.131 0.131h1.487a0.127 0.127 0 0 0 0.131 -0.131V1.137h0.087Zm-0.175 0.306H1.356v-0.262h0.481Zm-0.919 0v-0.262h0.262v0.262Zm0.262 0.175v0.7h-0.262V1.137Zm0.249 -0.871a0.14 0.14 0 0 1 0.083 0.066 0.127 0.127 0 0 1 0.013 0.096 0.136 0.136 0 0 1 -0.131 0.096h-0.184l0.048 -0.166a0.144 0.144 0 0 1 0.171 -0.092ZM0.573 0.429a0.127 0.127 0 0 1 0.013 -0.096 0.14 0.14 0 0 1 0.083 -0.066 0.144 0.144 0 0 1 0.171 0.092l0.048 0.166h-0.184a0.136 0.136 0 0 1 -0.131 -0.096ZM0.262 0.7h0.481v0.262H0.262Zm0.087 0.438h0.394v0.7H0.35Zm1.4 0.7h-0.394V1.137h0.394Z"/></g></g></svg>