<svg fill="#ffffff" width="35px" height="35px" viewBox="0 0 44.8 44.8" xmlns="http://www.w3.org/2000/svg"><path d="M27.253 36.027c-1.68 0 -3.36 -0.933 -4.293 -2.427 -0.187 -0.373 -0.747 -0.56 -1.307 -0.373 -0.373 0.187 -0.56 0.747 -0.373 1.307 1.12 2.24 3.36 3.547 5.973 3.547 3.733 0 6.72 -2.987 6.72 -6.72 0 -2.8 -1.867 -5.413 -4.48 -6.347 -0.56 -0.187 -0.933 0 -1.12 0.56s0 0.933 0.56 1.12c1.867 0.747 3.173 2.427 3.173 4.667 0 2.613 -2.053 4.667 -4.853 4.667z"/><path d="M19.6 18.293c-3.733 0 -6.72 2.987 -6.72 6.72s2.987 6.72 6.72 6.72 6.72 -2.987 6.72 -6.72 -2.987 -6.72 -6.72 -6.72zm0 11.387c-2.613 0 -4.853 -2.24 -4.853 -4.853S16.987 19.973 19.6 19.973c2.613 0 4.853 2.24 4.853 4.853S22.4 29.68 19.6 29.68z"/><path d="M43.493 21.467 25.76 3.733c-1.307 -1.307 -3.36 -1.307 -4.667 0l-11.76 11.573 -6.16 6.16C2.8 21.84 2.8 22.4 3.173 22.773c0.187 0.187 0.373 0.187 0.747 0.187 0.187 0 0.56 0 0.747 -0.187l4.667 -4.48v21.84c0 1.867 1.493 3.36 3.36 3.36h22.4c1.867 0 3.36 -1.493 3.36 -3.36V18.667l4.107 4.107c0.373 0.373 0.933 0.373 1.307 0 0 -0.373 0 -0.933 -0.373 -1.307zm-7.28 18.667c0 0.747 -0.56 1.493 -1.493 1.493h-22.4c-0.747 0 -1.493 -0.56 -1.493 -1.493V16.427L22.4 5.04c0.56 -0.56 1.493 -0.56 2.053 0l11.76 11.76v23.333z"/></svg>