<svg fill="#ffffff" width="35px" height="35px" viewBox="0 0 1.05 1.05" xmlns="http://www.w3.org/2000/svg"><title/><g data-name="Layer 2" id="Layer_2"><path d="M0.831 0.087H0.219v0.131H0.087v0.175a0.175 0.175 0 0 0 0.149 0.172 0.219 0.219 0 0 0 0.15 0.128L0.357 0.875H0.262v0.087h0.525v-0.087h-0.094l-0.03 -0.181a0.219 0.219 0 0 0 0.15 -0.128A0.175 0.175 0 0 0 0.962 0.394V0.219h-0.131ZM0.175 0.394V0.306h0.044v0.163A0.087 0.087 0 0 1 0.175 0.394Zm0.438 0.219h-0.052l0.044 0.262h-0.159l0.044 -0.262H0.438a0.131 0.131 0 0 1 -0.131 -0.131V0.175h0.438v0.306a0.131 0.131 0 0 1 -0.131 0.131Zm0.262 -0.306v0.087a0.087 0.087 0 0 1 -0.044 0.076V0.306Z"/><path d="M0.525 0.262a0.131 0.131 0 1 0 0.131 0.131 0.131 0.131 0 0 0 -0.131 -0.131Zm0 0.175a0.044 0.044 0 1 1 0.044 -0.044 0.044 0.044 0 0 1 -0.044 0.044Z"/></g></svg>