<svg fill="#000000" width="35px" height="35px" viewBox="0 0 2.6 2.6" xmlns="http://www.w3.org/2000/svg"><path d="M2.425 1.6a0.081 0.081 0 0 1 0.075 0.075v0.443Q2.5 2.35 2.275 2.35h-0.45a0.078 0.078 0 0 1 0 -0.155h0.413c0.083 0 0.113 -0.03 0.113 -0.116V1.675a0.081 0.081 0 0 1 0.075 -0.075Zm-2.25 0A0.081 0.081 0 0 1 0.25 1.675v0.404c0 0.086 0.029 0.116 0.113 0.116h0.413a0.078 0.078 0 0 1 0 0.155h-0.45Q0.1 2.35 0.1 2.118V1.675A0.081 0.081 0 0 1 0.175 1.6Zm0.834 -0.9c0.036 0 0.067 0.023 0.067 0.05v1.1c0 0.028 -0.03 0.05 -0.067 0.05h-0.167c-0.036 0 -0.067 -0.023 -0.067 -0.05V0.75c0 -0.028 0.03 -0.05 0.067 -0.05h0.167Zm-0.433 0a0.05 0.05 0 0 1 0.05 0.05v1.1a0.05 0.05 0 0 1 -0.05 0.05h-0.05a0.05 0.05 0 0 1 -0.05 -0.05V0.75a0.05 0.05 0 0 1 0.05 -0.05h0.05Zm0.75 0a0.05 0.05 0 0 1 0.05 0.05v1.1a0.05 0.05 0 0 1 -0.05 0.05h-0.05a0.05 0.05 0 0 1 -0.05 -0.05V0.75a0.05 0.05 0 0 1 0.05 -0.05h0.05Zm0.75 0a0.05 0.05 0 0 1 0.05 0.05v1.1a0.05 0.05 0 0 1 -0.05 0.05h-0.05a0.05 0.05 0 0 1 -0.05 -0.05V0.75a0.05 0.05 0 0 1 0.05 -0.05h0.05Zm-0.317 0c0.036 0 0.067 0.023 0.067 0.05v1.1c0 0.028 -0.03 0.05 -0.067 0.05h-0.167c-0.036 0 -0.067 -0.023 -0.067 -0.05V0.75c0 -0.028 0.03 -0.05 0.067 -0.05h0.167ZM2.275 0.25Q2.5 0.25 2.5 0.483v0.443a0.075 0.075 0 0 1 -0.15 0v-0.404c0 -0.086 -0.029 -0.116 -0.113 -0.116H1.825a0.078 0.078 0 0 1 0 -0.155h0.45Zm-1.5 0a0.078 0.078 0 0 1 0 0.155H0.363C0.28 0.405 0.25 0.436 0.25 0.521v0.404A0.081 0.081 0 0 1 0.175 1 0.081 0.081 0 0 1 0.1 0.925V0.483Q0.1 0.25 0.325 0.25Z"/></svg>