<svg width="35px" height="35px" viewBox="0 0 1.05 1.05" fill="none" xmlns="http://www.w3.org/2000/svg"><path d="M0.263 0.706 0.181 0.175H0.131a0.044 0.044 0 0 1 0 -0.087h0.087a0.043 0.043 0 0 1 0.029 0.01 0.044 0.044 0 0 1 0.015 0.027L0.276 0.219H0.612v0.087H0.29l0.054 0.35h0.411l0.066 -0.219h0.091l-0.083 0.275A0.044 0.044 0 0 1 0.787 0.744H0.307a0.043 0.043 0 0 1 -0.03 -0.011 0.044 0.044 0 0 1 -0.015 -0.027zM0.438 0.875a0.087 0.087 0 1 1 -0.175 0 0.087 0.087 0 0 1 0.175 0zm0.394 0a0.087 0.087 0 1 1 -0.175 0 0.087 0.087 0 0 1 0.175 0zm0 -0.787a0.044 0.044 0 0 1 0.044 0.044v0.044h0.044a0.044 0.044 0 1 1 0 0.087h-0.044v0.044a0.044 0.044 0 1 1 -0.087 0V0.262h-0.044a0.044 0.044 0 1 1 0 -0.087h0.044V0.131a0.044 0.044 0 0 1 0.044 -0.044z" fill="#0D0D0D"/></svg>