<svg version="1.1" id="Capa_1" xmlns="http://www.w3.org/2000/svg" xmlns:xlink="http://www.w3.org/1999/xlink" x="0px" y="0px" viewBox="0 0 50 50" style="enable-background:new 0 0 466.971 466.971;" xml:space="preserve" width="40" height="40"><g><path d="M23.342 33.221c0.244 -0.103 0.824 -0.222 1.659 -0.222 0.834 0 1.414 0.12 1.658 0.222a0.589 0.589 0 0 0 0.457 -1.086c-0.475 -0.2 -1.246 -0.314 -2.114 -0.314 -0.869 0 -1.64 0.114 -2.115 0.314a0.589 0.589 0 0 0 0.457 1.086z"/><path d="M25.589 33.67h-1.178a0.589 0.589 0 0 0 0 1.178h1.178a0.589 0.589 0 0 0 0 -1.178z"/><path d="M42.678 7.322C37.956 2.6 31.678 0 25 0s-12.956 2.6 -17.678 7.322S0 18.322 0 25s2.6 12.956 7.322 17.678c4.722 4.722 11 7.322 17.678 7.322s12.956 -2.6 17.678 -7.322c4.722 -4.722 7.322 -11 7.322 -17.678s-2.6 -12.956 -7.322 -17.678zM12.132 25.087c0.045 1.276 0.217 2.512 0.501 3.691a1.913 1.913 0 0 1 -0.936 -0.379 1.913 1.913 0 0 1 -0.741 -1.274 1.913 1.913 0 0 1 0.377 -1.425 1.913 1.913 0 0 1 0.8 -0.613zm26.613 0.613a1.913 1.913 0 0 1 0.377 1.425 1.913 1.913 0 0 1 -0.741 1.274 1.913 1.913 0 0 1 -1.017 0.388c0.288 -1.191 0.461 -2.441 0.504 -3.731a1.912 1.912 0 0 1 0.877 0.643zm-3.8 6.296c-0.182 -0.085 -0.289 -0.228 -0.349 -0.356 -0.175 -0.375 -0.142 -1.006 0.33 -1.572 1.071 -1.285 1.336 -3.284 1.346 -4.9l0.421 -0.219c-0.076 2.578 -0.706 4.984 -1.748 7.046zm-0.757 -7.072c-0.413 -1.728 -1.969 -3.017 -3.822 -3.017 -2.028 0 -3.702 1.545 -3.909 3.519h-2.916c-0.206 -1.975 -1.88 -3.519 -3.909 -3.519 -1.853 0 -3.409 1.289 -3.822 3.017l-0.891 -0.463c0.042 -0.987 0.162 -1.707 0.165 -1.725 0.007 -0.043 0.758 -4.264 4.326 -5.093 0.924 -0.215 1.782 0.034 2.621 0.761 1.72 1.49 4.216 1.49 5.936 0 0.84 -0.727 1.697 -0.977 2.621 -0.761 3.552 0.826 4.319 5.052 4.326 5.096 0.068 0.39 0.14 1.007 0.167 1.722l-0.893 0.463zm-6.575 0.913c0 -1.518 1.235 -2.753 2.753 -2.753 0.194 0 0.383 0.02 0.566 0.059l-2.349 4.788c-0.592 -0.505 -0.969 -1.256 -0.969 -2.094zm4.392 -2.209c0.675 0.502 1.113 1.305 1.113 2.209 0 1.518 -1.235 2.753 -2.753 2.753 -0.258 0 -0.507 -0.036 -0.744 -0.103l2.384 -4.859zm-15.126 2.209c0 -1.518 1.235 -2.753 2.753 -2.753 0.183 0 0.363 0.018 0.536 0.053L17.827 27.911c-0.579 -0.505 -0.946 -1.247 -0.946 -2.074zm4.368 -2.226c0.688 0.501 1.137 1.312 1.137 2.226 0 1.518 -1.235 2.753 -2.753 2.753a2.742 2.742 0 0 1 -0.773 -0.111l2.389 -4.868zm14.979 0.255c-0.055 -0.749 -0.141 -1.262 -0.152 -1.325 -0.035 -0.205 -0.897 -5.039 -5.22 -6.045 -1.299 -0.302 -2.531 0.041 -3.659 1.019 -1.273 1.103 -3.12 1.103 -4.393 0 -1.129 -0.978 -2.36 -1.321 -3.659 -1.019 -4.324 1.006 -5.186 5.84 -5.22 6.042 -0.011 0.064 -0.097 0.578 -0.152 1.328l-0.456 -0.237c0.157 -3.383 1.322 -6.186 3.396 -8.142 2.082 -1.963 4.947 -3.001 8.287 -3.001s6.206 1.038 8.287 3.001c2.074 1.956 3.24 4.759 3.396 8.142l-0.456 0.237zm-22.5 1.304c0.009 1.616 0.275 3.614 1.346 4.9 0.431 0.517 0.608 1.136 0.439 1.541 -0.078 0.189 -0.232 0.32 -0.454 0.396 -1.045 -2.063 -1.677 -4.473 -1.753 -7.055l0.421 0.219zm2.25 4.146c-0.733 -0.88 -0.994 -2.258 -1.056 -3.526l0.799 0.415c0.186 1.996 1.869 3.563 3.913 3.563 1.905 0 3.497 -1.362 3.855 -3.164h3.024c0.358 1.801 1.95 3.164 3.855 3.164 2.043 0 3.727 -1.568 3.913 -3.563l0.793 -0.412c-0.071 1.306 -0.345 2.676 -1.051 3.523 -0.706 0.847 -0.899 1.956 -0.491 2.825 0.185 0.394 0.479 0.698 0.843 0.887 -2.136 3.509 -5.543 5.784 -9.374 5.784 -3.826 0 -7.229 -2.269 -9.365 -5.77 0.444 -0.202 0.782 -0.538 0.965 -0.979 0.343 -0.823 0.104 -1.876 -0.622 -2.748zm5.269 13.344a0.588 0.588 0 0 0 -0.582 -0.3l-2.341 0.268 0.244 -4.723c0.828 0.579 1.714 1.05 2.644 1.397l3.199 7.18v1.913l-5.126 -2.689 1.907 -2.394a0.589 0.589 0 0 0 0.055 -0.652zm10.185 -4.754 0.244 4.723 -2.341 -0.268a0.588 0.588 0 0 0 -0.582 0.3 0.589 0.589 0 0 0 0.055 0.652l1.907 2.394 -5.126 2.689v-1.914l3.199 -7.178c0.931 -0.347 1.817 -0.818 2.644 -1.397zm-6.433 7.004 -2.303 -5.169a10.744 10.744 0 0 0 4.607 0l-2.304 5.169zm6.894 1.509a0.589 0.589 0 0 0 0.187 -0.888l-1.464 -1.837 1.617 0.185a0.589 0.589 0 0 0 0.655 -0.615l-0.275 -5.33c2.697 1.43 4.97 3.617 6.503 6.264 -3.383 2.499 -7.343 4.041 -11.544 4.489l4.321 -2.267zm-14.597 -2.697a0.588 0.588 0 0 0 0.47 0.156l1.617 -0.185 -1.464 1.837a0.589 0.589 0 0 0 0.187 0.888l4.321 2.267c-4.202 -0.448 -8.162 -1.991 -11.546 -4.491 1.533 -2.653 3.807 -4.843 6.505 -6.272l-0.276 5.339a0.589 0.589 0 0 0 0.185 0.46zm24.548 -1.876a24.269 24.269 0 0 1 -1.79 1.62c-1.699 -2.872 -4.216 -5.227 -7.186 -6.728 1.858 -1.738 3.314 -4.076 4.167 -6.772 0.061 0.004 0.123 0.006 0.184 0.006 0.675 0 1.329 -0.219 1.875 -0.636 0.659 -0.502 1.084 -1.232 1.195 -2.053s-0.105 -1.637 -0.607 -2.297c-0.453 -0.594 -1.09 -0.997 -1.812 -1.152 -0.121 -3.809 -1.419 -6.983 -3.775 -9.204 -2.304 -2.173 -5.449 -3.322 -9.095 -3.322s-6.791 1.149 -9.095 3.322c-2.359 2.225 -3.658 5.405 -3.775 9.222 -0.69 0.167 -1.297 0.562 -1.734 1.134 -0.502 0.659 -0.718 1.475 -0.607 2.297s0.535 1.551 1.195 2.053c0.546 0.416 1.2 0.636 1.875 0.636 0.036 0 0.071 -0.002 0.107 -0.004 0.852 2.691 2.305 5.026 4.16 6.763 -2.971 1.502 -5.484 3.858 -7.181 6.732a24.292 24.292 0 0 1 -1.789 -1.619C3.656 37.345 1.178 31.363 1.178 25s2.478 -12.345 6.977 -16.845C12.655 3.656 18.637 1.178 25 1.178c6.363 0 12.345 2.478 16.845 6.977 4.499 4.499 6.977 10.482 6.977 16.845s-2.478 12.345 -6.977 16.845z"/></g></svg>