<svg fill="#ffffff" width="35px" height="35px" viewBox="0 0 1.575 1.575" version="1.1" preserveAspectRatio="xMidYMid meet" xmlns="http://www.w3.org/2000/svg" xmlns:xlink="http://www.w3.org/1999/xlink"><title>grid-view-line</title><path class="clr-i-outline clr-i-outline-path-1" d="M0.612 0.175H0.262a0.087 0.087 0 0 0 -0.087 0.087v0.35a0.087 0.087 0 0 0 0.087 0.087h0.35a0.087 0.087 0 0 0 0.087 -0.087V0.262a0.087 0.087 0 0 0 -0.087 -0.087ZM0.262 0.612V0.262h0.35v0.35Z"/><path class="clr-i-outline clr-i-outline-path-2" d="M1.313 0.175h-0.35a0.087 0.087 0 0 0 -0.087 0.087v0.35a0.087 0.087 0 0 0 0.087 0.087h0.35a0.087 0.087 0 0 0 0.087 -0.087V0.262a0.087 0.087 0 0 0 -0.087 -0.087Zm-0.35 0.438V0.262h0.35v0.35Z"/><path class="clr-i-outline clr-i-outline-path-3" d="M0.612 0.875H0.262a0.087 0.087 0 0 0 -0.087 0.087v0.35a0.087 0.087 0 0 0 0.087 0.087h0.35a0.087 0.087 0 0 0 0.087 -0.087v-0.35a0.087 0.087 0 0 0 -0.087 -0.087ZM0.262 1.313v-0.35h0.35v0.35Z"/><path class="clr-i-outline clr-i-outline-path-4" d="M1.313 0.875h-0.35a0.087 0.087 0 0 0 -0.087 0.087v0.35a0.087 0.087 0 0 0 0.087 0.087h0.35a0.087 0.087 0 0 0 0.087 -0.087v-0.35a0.087 0.087 0 0 0 -0.087 -0.087Zm-0.35 0.438v-0.35h0.35v0.35Z"/><path x="0" y="0" width="36" height="36" fill-opacity="0" d="M0 0H1.575V1.575H0V0z"/></svg>